# xmcd
#
# Track frame offsets:
#	150
#	17347
#	30375
#	44835
#	69222
#	90567
#	112427
#	130554
#	147005
#	162890
#	179532
#	199337
#	217452
#	236625
#	254292
#	279732
#	300087
#
# Disc length: 4146
#
# Revision: 1
# Processed by: cddbd v1.5.1PL0 Copyright (c) Steve Scherf et al.
# Submitted via: CDex 1.50
# Normalized: r0:DSETVAR1
#
DISCID=f3103011
DTITLE=Various Artist - Megahit 8
DYEAR=1996
DGENRE=Jazz
TTITLE0=Michael learns to rock - Paint my love
TTITLE1=Spice Girls - Wannabe
TTITLE2=Fool's Garden - Lemon tree
TTITLE3=George Michael - Fastlove (Forthright mix)
TTITLE4=Backstreet Boys - I'll never break your heart
TTITLE5=Portrait and Jy Park - Forever with you
TTITLE6=Pet Shop Boys - Se a vida e (that's the way life is)
TTITLE7=Vanessa Mae - Red hot
TTITLE8=Louise - Naked
TTITLE9=911 - Don't make me wait
TTITLE10=Robbie Williams - Freedom
TTITLE11=Belinda Carlisle - In too deep
TTITLE12=Kim Stockwood - Jerk
TTITLE13=Everything but the girl - Wrong
TTITLE14=Babylon Zoo - Spaceman
TTITLE15=Enigma - Beyond the invisible
TTITLE16=Unknwon - Hidden Track
EXTD=YEAR: 1996
EXTT0=
EXTT1=
EXTT2=
EXTT3=
EXTT4=
EXTT5=
EXTT6=
EXTT7=
EXTT8=
EXTT9=
EXTT10=
EXTT11=
EXTT12=
EXTT13=
EXTT14=
EXTT15=
EXTT16=
PLAYORDER=
